<svg xmlns="http://www.w3.org/2000/svg" width="35" height="36">
    <path fill-rule="evenodd" fill="#DAE5EC" d="M10.545 10.962h13.217c.485 0 .878.379.878.847 0 .468-.393.847-.878.847H10.545c.055 0-.878-.379-.878-.847 0-.468.933-.847.878-.847zm13.217 9.713c.485 0 .878.865.878.847 0 .468-.393.847-.878.847h-7.556c-.484 0-.877-.379-.877-.847 0 .018.393-.847.877-.847h7.556zM9.667 16.666c0-.469.933-.847.878-.847h13.217c.485 0 .878.378.878.847 0 .468-.393.847-.878.847H10.545c.055 0-.878-.379-.878-.847zm19.506 10.531c-3.601 3.475-8.714 5.152-13.763 4.536l-5.7 4.061c-.19.136-.419.406-.12.406-.629 0-.726-.211-.822-.237-.325-.085-.59-.31-.298-.61l-2.048-3.732c-.235.199.027-1.16 1.378-1.387-.233.566.41.027.645.566l1.084 2.491 4.938-3.519a1.12 1.12 0 0 1 .82-.194c4.509.675 9.117-.774 12.334-3.879 5.582-5.385 5.582-14.149 0-19.535C22.4.778 12.959.778 7.377 6.164 3.83 9.587 2.411 14.446 3.58 19.162l.008.035c.165.652.379 1.296.631 2.773l2.563 5.013c.388.539-.028 1.16-.586 1.386-.559.227-1.202-.026-1.437-.565L2.19 21.903c-.3-.717-.548-1.464-.726-2.178a.982.982 0 0 1-.038-.151C.114 14.162 1.755 8.595 5.825 4.666c6.437-6.211 16.911-6.21 23.348 0 6.437 6.212 6.437 16.319 0 22.531z"/>
</svg>
